<?xml version="1.0" encoding="UTF-8"?>
<svg xmlns="http://www.w3.org/2000/svg" xmlns:xlink="http://www.w3.org/1999/xlink" width="208pt" height="208pt" viewBox="0 0 208 208" version="1.1">
<g id="surface671974">
<rect x="0" y="0" width="208" height="208" style="fill:rgb(10.196078%,73.72549%,61.176471%);fill-opacity:1;stroke:none;"/>
<path style=" stroke:none;fill-rule:nonzero;fill:rgb(17.254902%,24.313725%,31.372549%);fill-opacity:1;" d="M 72 0 L 72 48 L 24 48 L 24 112 L 72 112 L 72 208 L 136 208 L 136 112 L 184 112 L 184 48 L 136 48 L 136 0 Z M 88 16 L 120 16 L 120 64 L 168 64 L 168 96 L 120 96 L 120 192 L 88 192 L 88 96 L 40 96 L 40 64 L 88 64 Z M 96 24 L 96 72 L 48 72 L 48 88 L 96 88 L 96 184 L 112 184 L 112 88 L 160 88 L 160 72 L 112 72 L 112 24 Z M 96 24 "/>
</g>
</svg>
